<svg xmlns="http://www.w3.org/2000/svg" width="30" height="30" viewBox="0 0 30 30">
  <path fill="#5a5b5b" fill-rule="evenodd" d="m58.9728626 129.523256c-1.2979513-2.31468-3.1039022-4.120387-5.4190681-5.496119-2.3146798-1.305243-4.8444695-2.027137-7.5179088-2.027137-2.7451427 0-5.2751754.721894-7.5896121 2.027137-2.2429765 1.375732-4.1208738 3.181439-5.4187522 5.496119-1.3756096 2.308603-2.0275214 4.76669-2.0275214 7.517909 0 3.253628.9389924 6.214124 2.8946939 8.821694 1.8781403 2.601736 4.3362267 4.40793 7.3684256 5.418691.3648361.071769.5801891 0 .7955421-.14354.1494831-.143553.2211864-.358857.2211864-.580141 0 0 0-.358857 0-1.010773 0-.723742 0-1.303931 0-1.734394-.4365394.071704-.4365394.071704-.4365394.071704-.2870563 0-.6518924.071703-1.0825983.071703-.4365394-.071703-.9389487-.071703-1.3754881-.143407-.5024092-.071703-.9389486-.287056-1.2979513-.580189-.4365394-.358759-.7235956-.723596-.8672453-1.226005-.2211865-.436782-.2211865-.436782-.2211865-.436782-.1436496-.287057-.2870562-.651893-.5741125-1.010652-.2931328-.364836-.5801891-.651893-.8672453-.723596-.1494832-.14365-.1494832-.14365-.1494832-.14365-.0719464-.071703-.1436497-.143649-.215353-.215353-.1436496-.071703-.1436496-.149483-.2153529-.292889 0-.071947 0-.14365.0717033-.215353.1436496-.071947.2870562-.071947.5801891-.071947.4307059.071947.4307059.071947.4307059.071947.2211864 0 .579946.215353.9389486.436539.3648362.287056.7235957.645816.9389487 1.010652.2931328.574356.6518924.939192 1.0884318 1.226248.4307059.29289.8672453.43654 1.2979513.43654.4365394 0 .795542 0 1.0884318-.071704.3590026-.071946.6460589-.221429.8672453-.293133.1436497-.867245.5024092-1.590841 1.010895-2.021547-.795542-.071703-1.4474344-.215353-2.0276235-.364836-.5741125-.143406-1.2260049-.430706-1.806194-.795542-.6518924-.358759-1.1543016-.795299-1.590841-1.297708-.4307059-.508486-.7955421-1.160378-1.010895-2.027623-.2870563-.867246-.4304629-1.806194-.4304629-2.960496 0-1.590841.5024092-2.894626 1.5130612-3.977224-.4307059-1.232082-.4307059-2.52979.1494831-4.048928.430706-.071946.9389487 0 1.7344907.287057.7235957.292889 1.226005.579946 1.5908411.723595.3590026.215353.6460589.43654.8672453.580189 1.1543016-.364836 2.4580864-.508485 3.7560377-.508485 1.2320814 0 2.5297897.143649 3.7618711.508485.7177622-.508485.7177622-.508485.7177622-.508485.5084858-.287057 1.0884318-.574113 1.806194-.867246.6518924-.21511 1.2320815-.287056 1.5908411-.21511.580189 1.519138.580189 2.816846.1497262 4.048928 1.0106519 1.082598 1.512575 2.386383 1.512575 3.977224 0 1.154302-.1434066 2.09325-.3582734 2.960496-.2870563.867245-.6518924 1.519137-1.0825983 2.027623-.4365394.502409-.9389487.938949-1.5908411 1.297708-.580189.364836-1.2320814.652136-1.806194.795542-.580189.149483-1.3040278.293133-2.0276235.364836.7235957.58019 1.010652 1.519138 1.010652 2.745143v4.120898c0 .221284.0777798.436588.2931328.580141.1436497.14354.3590026.215309.7238387.14354 3.032199-1.010761 5.4893131-2.816955 7.4411012-5.418691 1.8837308-2.60757 2.8219503-5.568066 2.8219503-8.821694 0-2.751219-.6514063-5.209306-2.0271374-7.517909z" transform="translate(-31 -122)"/>
</svg>
