<svg height="30" viewBox="0 0 30 30" width="30" xmlns="http://www.w3.org/2000/svg"><g fill="none" fill-rule="evenodd"><path d="m29.8408696 15.0127826c0 8.2293913-6.6769566 14.828087-14.8291305 14.828087-8.2291304 0-14.8278991-6.5986957-14.8278991-14.828087 0-8.1521739 6.5987687-14.82756521 14.8278991-14.82756521 8.1521739 0 14.8291305 6.67539131 14.8291305 14.82756521z" fill="#5a5b5b"/><path d="m14.4662609 24.0187826c0-4.5062609 0-4.5062609 0-4.5062609-1.0077392.0772174-2.0157392.3146087-3.0234783.6226957.6996522 2.0992174 1.7846087 3.5689565 3.0234783 3.8835652zm-3.2546087-4.8913043c1.008-.3146087 2.1696521-.5454783 3.2546087-.6226957 0-2.9527826 0-2.9527826 0-2.9527826-3.7231305 0-3.7231305 0-3.7231305 0 0 1.1684348.1541739 2.4073043.4685218 3.5754783zm-.4685218-4.5832174h3.7231305c0-3.0232174 0-3.0232174 0-3.0232174-1.0849566-.0834783-2.2466087-.2376522-3.2546087-.6226957-.3143479 1.1619131-.4685218 2.4070435-.4685218 3.6459131zm3.7231305-4.0374783c0-4.49973912 0-4.49973912 0-4.49973912-1.2388696.30808695-2.3238261 1.78434782-3.0234783 3.88356522 1.0077391.3850435 2.0157391.5392174 3.0234783.6161739zm4.0374782 9.6284348c-.9307826-.308087-1.9385217-.5454783-3.0232174-.5454783v4.4290435c1.2388696-.3146087 2.330087-1.7843478 3.0232174-3.8835652zm.3146087-9.2368696c-1.0912174.3850435-2.1761739.5392174-3.3378261.6226957v3.0232174h3.7998261c0-1.2388696-.153913-2.484-.462-3.6459131zm.462 4.6536522c-3.7998261 0-3.7998261 0-3.7998261 0v2.9527826c1.1616522.0772174 2.2466087.308087 3.3378261.6226957.308087-1.168174.462-2.4070435.462-3.5754783zm-7.0606956-9.23686957c-1.3223479.46852174-2.4842609 1.16817392-3.49200003 2.09895653.5392174.46226087 1.16165218.85382608 1.78434783 1.16191304.3853043-1.23886957.9307826-2.2466087 1.7076522-3.26086957zm-3.49200003 15.29660867c1.00773913.9307826 2.16965213 1.6304348 3.49200003 2.0924348-.7768696-.9307826-1.3223479-2.0154782-1.7076522-3.1836522-.62269565.3143479-1.24513043.6224348-1.78434783 1.0912174zm11.56695653-7.0674782h3.800087c-.1539131-2.0154783-.8535653-3.8770435-2.1759131-5.35330438-.6164348.53895652-1.3930435 1.00773918-2.1696522 1.31582608.308087 1.3223478.5454783 2.6446957.5454783 4.0374783zm-10.0969565-4.0374783c-.77686959-.3080869-1.47000003-.77686956-2.1696522-1.31582608-1.2453913 1.47626088-2.022 3.33782608-2.09921739 5.35330438h3.80660869c0-1.3927826.15391305-2.7151305.4622609-4.0374783zm9.5514782 9.0057391c.7766087.3915653 1.5532174.8538261 2.1696522 1.3223479 1.3223478-1.4762609 2.022-3.3378261 2.1759131-5.2828696-3.800087 0-3.800087 0-3.800087 0 0 1.3223478-.2373913 2.6446957-.5454783 3.9605217zm-2.022 4.1916522c1.3223479-.462 2.5674783-1.1616522 3.4982609-2.0924348-.5454783-.4687826-1.0912174-.7768695-1.7908696-1.0912174-.3080869 1.168174-.9307826 2.2528696-1.7073913 3.1836522zm-2.2466087-17.69713042v4.49973912c1.0846957-.0769565 2.0924348-.2311304 3.0232174-.6161739-.6931304-2.0992174-1.7843478-3.57547827-3.0232174-3.88356522zm-5.2828695 13.50547822c-.30834785-1.315826-.4622609-2.6381739-.4622609-3.9605217-3.80660869 0-3.80660869 0-3.80660869 0 .07721739 1.9450435.85382609 3.8066087 2.09921739 5.2828696.69965217-.4685218 1.39278261-.9307826 2.1696522-1.3223479zm11.0277391-11.09843474c-.9307826-.93078261-2.175913-1.63043479-3.4982609-2.09895653.7766087 1.01426087 1.3993044 2.022 1.7073913 3.18391305.6996522-.23113044 1.2453913-.62269565 1.7908696-1.08495652z" fill="#fff"/></g></svg>